<svg height="512pt" viewBox="-32 0 512 512" width="512pt" xmlns="http://www.w3.org/2000/svg"><path d="m335.9375 6.960938v128.21875h-32.054688v-96.164063h-160.273437v96.164063h-32.054687v-128.21875zm0 0" fill="#aac4da"/><path d="m440.113281 183.261719v320.542969h-384.652343l-48.082032-48.082032v-320.542968h384.652344zm0 0" fill="#31e8bb"/><path d="m79.5 135.179688h-72.121094v320.542968l48.082032 48.082032h72.121093l-48.082031-48.082032zm0 0" fill="#1cb28b"/><g fill="#fff"><path d="m187.433594 281.925781-76.113282 55.355469v-113.335938h-15.15625v192.328126h15.15625v-60.25l46.261719-33.648438 10.703125 16.054688v77.84375h15.15625v-82.433594l-13.589844-20.386719 26.496094-19.269531zm0 0"/><path d="m264.011719 351.726562h48.519531v45.378907l-3.574219 3.574219h-57.832031l-11.589844-11.585938v-91.238281l5.121094-10.238281h67.441406v-15.15625h-76.808594l-10.90625 21.820312v101.089844l20.464844 20.464844h70.386719l12.453125-12.453126v-66.8125h-63.675781zm0 0"/><path d="m365.535156 162.492188-10.71875 10.714843 37.851563 37.851563v60.96875h15.15625v-67.246094zm0 0"/><path d="m392.667969 320.109375h15.15625v16.027344h-15.15625zm0 0"/><path d="m103.742188 464.789062h16.027343v15.15625h-16.027343zm0 0"/></g><path d="m432.734375 496.84375h-373.9375l-43.640625-43.640625v-44.945313h-15.15625v51.222657l52.519531 52.519531h395.371094v-215.933594h-15.15625zm0 0"/><path d="m395.371094 128.21875h-51.65625v-128.21875h-95.726563v15.15625h80.570313v113.0625h-16.898438v-96.164062h-175.429687v71.6875h15.15625v-56.53125h145.117187v81.007812h-177.171875v-113.0625h104.613281v-15.15625h-119.769531v128.21875h-104.175781v256h15.15625v-240.84375h373.9375l43.640625 43.640625v85.011719h15.15625v-91.289063zm0 0"/><path d="m344.148438 400.679688h16.027343v15.15625h-16.027343zm0 0"/><path d="m392.667969 288.054688h15.15625v16.027343h-15.15625zm0 0"/><path d="m392.667969 352.164062h15.15625v16.027344h-15.15625zm0 0"/><path d="m71.6875 464.789062h16.027344v15.15625h-16.027344zm0 0"/><path d="m135.796875 464.789062h16.027344v15.15625h-16.027344zm0 0"/></svg>