<svg id="Capa_1" enable-background="new 0 0 512 512" height="512" viewBox="0 0 512 512" width="512" xmlns="http://www.w3.org/2000/svg"><g><g><path d="m15.482 512h481.067c8.533 0 15.451-6.918 15.451-15.451v-481.067c0-13.765-16.643-20.659-26.377-10.925l-481.067 481.066c-9.733 9.734-2.839 26.377 10.926 26.377zm370.316-110.751h-102.94c-13.765 0-20.659-16.643-10.926-26.377l102.94-102.939c9.734-9.734 26.377-2.84 26.377 10.926v102.939c0 8.533-6.918 15.451-15.451 15.451z" fill="#bee75e"/><path d="m485.623 4.556-240.533 240.534 78.313 78.313 51.47-51.47c9.734-9.733 26.377-2.84 26.377 10.926v102.94c0 4.267-1.729 8.129-4.525 10.926l110.751 110.751c2.796-2.796 4.526-6.659 4.526-10.926v-481.067c-.002-13.766-16.645-20.66-26.379-10.927z" fill="#00cb75"/></g><g><g fill="#00cb75"><path d="m122.585 432.227c6.107-6.107 6.107-16.01 0-22.117l-21.257-21.257-22.118 22.116 21.257 21.257c6.108 6.108 16.011 6.108 22.118.001z"/><path d="m166.819 387.992c6.107-6.107 6.107-16.01 0-22.117l-21.257-21.257-22.117 22.117 21.257 21.257c6.108 6.107 16.01 6.107 22.117 0z"/><path d="m211.054 343.758c6.107-6.107 6.107-16.01 0-22.117l-21.257-21.257-22.118 22.116 21.257 21.257c6.108 6.108 16.011 6.108 22.118.001z"/><path d="m233.171 299.523c6.107 6.107 16.01 6.107 22.117 0s6.107-16.01 0-22.117l-21.257-21.257-22.117 22.117z"/></g><path d="m277.406 255.289c6.107 6.107 16.01 6.107 22.117 0 6.108-6.108 6.108-16.01 0-22.117l-21.257-21.257-22.117 22.117z" fill="#009398"/><path d="m343.758 188.937-21.258-21.258-22.117 22.117 21.257 21.257c6.107 6.107 16.01 6.107 22.117 0 6.108-6.106 6.108-16.009.001-22.116z" fill="#009398"/><path d="m387.992 166.819c6.107-6.107 6.107-16.01 0-22.117l-21.257-21.257-22.117 22.117 21.257 21.257c6.107 6.108 16.01 6.108 22.117 0z" fill="#009398"/><path d="m432.227 122.585c6.107-6.107 6.107-16.01 0-22.117l-21.258-21.258-22.117 22.117 21.257 21.257c6.108 6.108 16.01 6.108 22.118.001z" fill="#009398"/></g></g></svg>